/* XPM */
static char *d64fe6c09da644d5f2392f5a1bdddf91[] = {
/* columns rows colors chars-per-pixel */
"64 64 179 2 ",
"   c #003700",
".  c #003D00",
"X  c #2E3F36",
"o  c #5F0000",
"O  c #640000",
"+  c #6C0000",
"@  c #740000",
"#  c #7C0000",
"$  c #7D1500",
"%  c #472708",
"&  c #462D0A",
"*  c #4D2C0A",
"=  c #532E0B",
"-  c #592F0C",
";  c #47310C",
":  c #49340D",
">  c #493A0E",
",  c #56310C",
"<  c #5A340D",
"1  c #5D390E",
"2  c #60370D",
"3  c #60390E",
"4  c #493B2B",
"5  c #533422",
"6  c #543925",
"7  c #5B3A25",
"8  c #553D2A",
"9  c #5B3D2A",
"0  c #613B26",
"q  c #633E29",
"w  c #004400",
"e  c #004C00",
"r  c #005300",
"t  c #005B00",
"y  c #006300",
"u  c #006B00",
"i  c #007300",
"p  c #007B00",
"a  c #2E4338",
"s  c #31473D",
"d  c #314A3D",
"f  c #4C422E",
"g  c #54412D",
"h  c #5C412D",
"j  c #4D4332",
"k  c #524534",
"l  c #5B4432",
"z  c #554936",
"x  c #554739",
"c  c #564B3A",
"v  c #5B4D3C",
"b  c #57513D",
"n  c #5B513D",
"m  c #63432D",
"M  c #69442D",
"N  c #624733",
"B  c #684731",
"V  c #634936",
"C  c #6A4B35",
"Z  c #634C3B",
"A  c #6A4D39",
"S  c #66503F",
"D  c #6E513C",
"F  c #334C42",
"G  c #345245",
"H  c #34544A",
"J  c #38544E",
"K  c #36594D",
"L  c #365652",
"P  c #365B54",
"I  c #385C54",
"U  c #375C59",
"Y  c #385B58",
"T  c #574F40",
"R  c #5B4F41",
"E  c #575140",
"W  c #5D5241",
"Q  c #645341",
"!  c #6D5441",
"~  c #6A5A46",
"^  c #705643",
"/  c #6F6249",
"(  c #75644C",
")  c #78694F",
"_  c #7A694F",
"`  c #7A6B54",
"'  c #7F6D59",
"]  c #7F715A",
"[  c #840000",
"{  c #8B0000",
"}  c #940000",
"|  c #9D0000",
" . c #821700",
".. c #851800",
"X. c #8B1A00",
"o. c #911C00",
"O. c #A30000",
"+. c #AC0000",
"@. c #B30000",
"#. c #BC0000",
"$. c #972900",
"%. c #9B2B00",
"&. c #A32E00",
"*. c #A53200",
"=. c #AA3400",
"-. c #AF3B00",
";. c #B53B00",
":. c #B33D00",
">. c #C40000",
",. c #CC0000",
"<. c #D30000",
"1. c #B54100",
"2. c #BC4300",
"3. c #BF4800",
"4. c #BB5E00",
"5. c #BF6400",
"6. c #BD6C00",
"7. c #BE7000",
"8. c #84553B",
"9. c #89583D",
"0. c #C34500",
"q. c #C44B00",
"w. c #CA4C00",
"e. c #C65100",
"r. c #CC5200",
"t. c #D25300",
"y. c #C46400",
"u. c #C36B00",
"i. c #CB6D00",
"p. c #C37400",
"a. c #885B41",
"s. c #856549",
"d. c #87664C",
"f. c #8A664B",
"g. c #8D6A4D",
"h. c #95694B",
"j. c #926C4E",
"k. c #806D54",
"l. c #8C6B52",
"z. c #806E5A",
"x. c #936E52",
"c. c #817154",
"v. c #83735B",
"b. c #8A755E",
"n. c #85795F",
"m. c #8A795F",
"M. c #947154",
"N. c #95735B",
"B. c #9B7759",
"V. c #A37B58",
"C. c #857964",
"Z. c #8A7C64",
"A. c #907D64",
"S. c #9F7D63",
"D. c #008300",
"F. c #CC8200",
"G. c #CC8B00",
"H. c #94825D",
"J. c #968765",
"K. c #988364",
"L. c #A08466",
"P. c #A08964",
"I. c #A38C6C",
"U. c #A78F73",
"Y. c #A79573",
"T. c #AE9673",
"R. c #AB9C73",
"E. c #AF977B",
"W. c #AF9C7B",
"Q. c #B69E73",
"!. c #B69C7B",
"~. c #AFA27B",
"^. c #B6A37B",
"/. c #B69E82",
"(. c #AFA582",
"). c #B6A282",
"_. c #BCA784",
"`. c #BEA98A",
"'. c #C5B08C",
/* pixels */
"k c v x k k k k c v c c c c c j k c T b c c E W R c E E T c c T c x c k j k k c R n k f z b c n c j c b x k k x k z z n W n n z ",
"` ` _ ` k.k.` / ( _ _ ( ` v.v.' ] ' ) ] C.H.v.] ] ` ] n.v.' ] C.k.v.n.b.n.n.n.Z.Z.Z.Z.v.v.] c.] ] ` ' ] k.) _ ] b.v.l.k.c.b.Z.H.",
"c c c k k c R W W W v v n n n W W W W W E W E R c c T n c x x c R c c k k x v W x c T T z z c c z c k c c x x k l k x v x x c c ",
"= 2 2 - , < < * * < * < < < * < * < < = 1 , < * < , < < - * , < 1 1 - = < - , = = - = = 1 , 1 < = < 1 < , = - , , = = , = = = , ",
", : w w r t u y y y t w w w : 1 * < = = < , < * < , < , < ; : < 2 2 = - < = , < = < < = < , 1 < = , - < , , < : 5 7 m M m 7 ; * ",
"3 : w w r t y u u y t r w r ; < = = = * < < < & , = < , < = < , < 3 = - , , = 1 = < < * = , 1 < = , , , - , < : 5 7 M M m 7 ; * ",
"< ; w w r t y u u y t r w w : < 2 * = = < < , & , = < , < = < < < 2 * < < < = , = < - * = - 3 < , < = , < , < : 5 h B B m 9 & = ",
"* : w . r t u u y u t t r r : < 2 & U U U > , = , = < = - * 2 < = , * 1 1 < * , < = = * = = 3 1 1 < = , - < , & 6 m B m 9 8 % * ",
"* : w w r t u u u u y t w w ; < < ; U U U & < , , , = % < * 2 , * 2 * < 3 < = = - = * = < * 3 < = < = = 2 * < ; g m A A l h & , ",
"* ; w w t y u i u i y t r r ; = < & U U U & < < < , < = < = < < & < % - < , = , = < = = , * 3 < < 2 = = < * < ; l V D D Z l & < ",
"- & w w r t i i i i u t r r : , < & U Y U & , = 1 , < < 3 = 2 < * , % < < , * = = < - , < * < , < 2 = = < * , & v Z ! ! Z l & , ",
"< & . w r t i i i i u t r r : < , % U Y U ; < % < * < , < * 1 < * < * , < = * * * - : o $ &.q.0.q.q.=.o.+ & , & v Z ! D Z z & = ",
", ; w w r t y u i i y t r r & = 2 ; U Y U ; < % < % = = 3 = 1 - = < = < < = * * = = ; o ..*.w.q.q.r.-.o.+ * , & Z S ! ! Z x % , ",
", & w w r t u u u u t t w r & , , ; U Y U & - = - * , * : ,.+.{ { +.,.> = = * , < * & + ..=.e.e.r.r.-.X.+ ; , & Z S ! ! Z l : , ",
"= & w w r t u u u u t t r r ; < , ; U L P & ; N.x.l.: * > >.O.{ { +.>.: , < = < < * ; + X.=.e.r.r.t.=.o.+ : < % R S ^ ! Z l : = ",
"< & w w r t u u u u t t w r ; < , ; P L L ; ; N.x.g.; * : @.O.[ [ O.>.: < < < 1 , * : + X.*.r.r.r.r.-.o.+ ; < % Z S ^ ! A z ; * ",
"< : w w r t u u y y t r w w ; , < > K H K ; : l.x.j.: < : #.O.# # O.,.: < < < < , = > + X.=.e.r.r.t.;.o.+ > < & R Z ! ^ Z l ; & ",
"= & r w r t u u y y t t w r ; < < & K H H : : l.x.g.; < : >.O.[ { O.,.; < = = < < = : + ..=.e.r.t.t.;.X.+ : < & R Z ^ ! V l & , ",
"= & w w r y u u y y t r w w ; < , & H G G > : g.x.g.& < > ,.+.{ { +.<.; = & * < , * : + X.-.r.t.t.t.=.X.O : , & l Q ! A z h & , ",
"< ; w w r y u y y t t r w w : 1 = & K H H : ; f.j.d.; < : >.+.{ } +.,.; - * & , = * : + ..=.e.t.t.w.=...O ; < & l S S V h g ; < ",
"< & w w r y u y t t r r w w > < = : K H H ; & s.x.d.& = ; >.+.{ } +.<.: < * % - - * ; + X.=.e.e.q.q.*...O : , ; x V C l h 8 : , ",
", ; r w t t u u t t r w w w > < = : K H H ; ; s.x.d.; * & >.O.{ { +.<.: < , & = , , : O X.=.q.q.q.q.*...O ; 2 : g V N h 9 9 > = ",
"* : w w t y u y t r t w w w > < = ; K H H ; ; d.x.d.& , & >.+.{ { +.<.; < < * - , < : O X.*.q.q.q.q.*.X.+ : < ; l V m h g 6 : < ",
"= : w w r y u u t t r r . w ; < , % H H H > ; d.l.g.; , ; >.+.} } +.,.; : G.i.i.p.* : O ..*.q.q.q.q.*.o.+ : < : v C m 9 9 6 ; 1 ",
"< : r w t y u u y t r w w w ; , , % H L L > ; l.N.l.; , ; >.+.{ { +.<.: : G.i.u.7.; & O  .&.q.3.3.3.&.X.+ % , ; V V C m 9 6 & , ",
"< : r w t y i u y t r r w w : - < ; H L P : ; b.B.M.: , ; >.+.{ { +.<.: : G.u.5.7.& & o  .&.3.3.3.3.*.X.+ ; , ; N V C B 9 6 ; , ",
"1 : w w t y i u y t t r w w ; - , & P P U ; : N.A.N.: = : >.+.{ { O.,.: ; G.u.y.7.& ; O ..*.3.3.1.q.=.X.+ : < % l N A C h 6 : , ",
"- ; w r t y i i u t t w w w : , - & U U U & : N.B.N.: = ; #.O.[ { O.>.: ; G.u.u.p.& : O $ *.q.q.1.3.=.o.O ; - % 8 N A C h 6 : < ",
"< & r w t y u u u t r e w w : < * : U U U : : N.S.S.: = ; #.O.[ { O.>.: : G.i.i.p.: , O ..*.q.3.1.3.=.X.O : 1 & l V A Z h 6 : < ",
"n v v c c x x j j 4 4 k x T c c x c c R W W W ~ W W R v v W Q v v W W W W Q W R x c R n c c c b c c R Q E n Q W c c x c v c c T ",
"v.v.v.Z.A.A.Z.v.Z.b.z.v.n.n.v.v.v.v.z.z.z.z.z.v.n.v.` ( ) _ k.k.( ( _ l.z.` ( / k.m.Z.n.z.v.n.n.` ] m.n.] ] ] n.v.v.n.n.n.C.Z.Z.",
"E.E.).`.'.`./.U.L.A.K.I.Y.E.!./.).).~./.).).).`.).)._.`._.T.I.L.L.K.U.I.L.L.I.!._._.).Y.Y.~.(.(.^.I.H.I.~.`.R.K.K.J.U.Y.Y.Y.Y.U.",
"K.I.T.!./.!.).).R.W.^.Q.^.^._._.T.!.!.!.T.I.I.P.K.P.I.Y.T.W.).).E.I.m.I.~.E.J.J.`.).~.R.W.(.'.'.`.W.I.Y.).`././.I.I.K.I.Y./.).E.",
"v.c.` k.` v.v.m.A.H.A.m.m.m.c.k._ ( ( ( k.z.z.' v.n.C.K.A.n.v.v.n.v.v.v.n.c.v.m.] ] v.] n.Z.C.n.` ` ` ` ( ) ) z.v.] ` ) z.v.n.v.",
"R c j j j k x c k k j k x v n v Z v x x x x c x b R W n b x c c Q n R R W n b W R R W v c v R c T T c v T W W W n W W Q W Q W R ",
", = = < < < , = 3 < < < < , , < < * 1 3 - 3 , = * , = < = < < : = < 1 = , < , 3 = - < < 1 1 = - - 2 = , 1 < , < < = 2 % < * - * ",
"< = < - < , < = 2 2 < < < = * < - * 1 2 : l N A Z l g : < < < , * , 1 * * 1 , 1 - , < < 2 2 = = 1 :   w e t y y u i y r w w : = ",
"< , < < , < < * , < < = - , % < < = < 1 ; l N A A N l : = < < = * = 2 * = < , , < = , - - - = = 2 :   . e t y u u i y r e w : = ",
"< < , < 1 - 1 , < < 3 < , , = , - , , 1 : l V A Z V l & * , < & = * 1 , * < , = < * - < = - - * 1 ;     e t u u i i u t e w : = ",
"< < = - < , - , < , 3 < = , < , , < = < : l N A A N 9 & = - 1 : - * < < = , < 1 2 * : I L L ; = - :   . e t u u u i y t e e > = ",
", = < , = - - < , 1 - < = , - < , , = < : l l A D Z N & = < , < - < , - < = < < : , : U L H : * < * . . e t u y y u y t e r > < ",
"* , < , , , , , < - < < , = < , * , - < ; h V A D V l : , < , < 1 - , - - , < < = = ; I H H : , < : . . w r y y y u t r e e : < ",
"% < < , < , * , , < 1 - - , < , & < 1 1 ; h N A D Z l > , 1 , < < < < = * < 1 , * = & P L J : 1 < : w . w r y y y t r e w e : * ",
"% - < - < , = * O  .%.0.2.;.;.&. .O ; - ; h V A D V l > = < , = = < < , : < < * * , % P Y K & - , ; w . w r t t y t r e w w ; * ",
"= , , = , - < ; O $ $.;.0.1.1.&...O & < : 9 N A D C l : = < < , = , < < , , , * , < & K Y I & 1 * & w w e e t t y t e e . w : , ",
"= = , , * , < ; o $ $.0.0.1.1.&...O & < : g l A A V l > & >.O.{ { O.>.: , = < - , 1 ; I I I ; 1 * & w w e r y y y t r w . w ; , ",
", = < , * , < ; O  .&.0.0.;.1.%...O ; 1 ; l h C D V l > & >.O.[ [ O.>.; = * d.M.g.: : K Y I : 2 , & e w r t y y t t r w . w ; , ",
"= - 2 - = < < & O ..&.0.0.2.1.%. .O ; 1 ; 9 h C A l h : & >.O.[ [ | #.; = & a.h.f.: : J L I : 1 < ; w w e t t y t t e e . . : < ",
", = = < , < - ; O ..&.2.2.;.0.%.$ O > < ; g h M M N g ; & #.O.# # | @.; = ; 9.9.a.: : G J K ; < < & e w r t y t t t e w w . ; = ",
", % = , - , < ; O  .&.0.2.0.2.&. .O : , : 8 h B m m g ; & #.| [ # | @.& < > 8.9.a.: : d F G ; < < & e w r t y y t t e w . w ; * ",
"= & = < , , < : + X.=.0.0.0.0.=. .O ; , > 6 h M M h 6 ; & @.} # # } +.& < : 8.8.8.& ; d d G ; < , & w e t y u y t t e w . . ; , ",
"- = , < , < < ; + X.=.0.w.0.0.&. .O : < : 9 q M M 0 5 : ; @.} # # } +.; , : 8.9.8.; ; F F G ; , < & w e r y u t t t e w . . ; , ",
"= < 1 , , < < & O X.&.0.0.0.2.&. .O : < : 0 0 M M 0 5 : : @.} # # } @.: * ; 9.a.a.; ; d s F : , < ; e e r y y t t t e w w . & , ",
"= < 1 , , < , % O  .&.2.0.;.:.$.$ o ; , : 5 0 M 0 7 5 : : @.} # @ } @.: = & g.V.h.; ; s a a > , < : e e r y u y t t r e w w & * ",
"= = < , - , , & O  .&.3.2.2.;.$.$ o & , ; 5 7 m 0 7 5 : ; +.} # # | #.: = % j.V.B.& & d X a : < < ; e e t y i y y y r e w w * * ",
"< & F.y.4.6.: : O  .&.2.2.1.1.%.$ O ; , & 5 6 m m 0 5 ; & @.} # # O.>.& : & M.V.M.& % d a a : < , ; r r t u i u y y r e . w ; , ",
"- : p.y.y.6.; & O X.&.3.1.1.2.$.$ O : < & 6 h M C m 6 : & @.| [ { +.,.& = & x.V.j.: : G F G : < % : r r y u p u u y r e . w : = ",
"1 : F.y.4.u.; ; O X.&.1.1.1.1.$.$ O : < ; 6 h B C B 9 : & #.O.[ [ O.>.: < ; j.V.h.: ; G G G : - * : w w t u p i u y t w . . * = ",
"< ; F.i.y.u.; : O X.&.1.-.:.;.%. .O ; 1 ; 6 l C A B h : ; #.O.[ [ O.>.: < : j.M.f.; ; G H K : 1 * : w w t u p i u u t e . . & , ",
"< & F.y.y.6.: : + X.&.:.-.:.1.%.$ O ; < > 8 l C D N g ; : >.O.[ [ | @.: < : h.j.s.; ; G G K : 1 , : r r y i D.i i u t r . . : < ",
", ; F.y.y.6.: ; O X.*.1.1.:.1.%.$ O & = : g N D D m g : : >.O.{ [ | @.: < : h.h.a.: & H H P : < - : r r y p D.p i u y r w w ; 2 ",
"W Q W Q W R c c Q n v z z v z x j j k g g z n S z k j k c c c x W n Z c n c c z R n W R c c n Q c k z c W Q c z c R Q W R c x R ",
"n.n.Z.K.C.] v.v.n.k.` ' d._ k.k.v.` _ ] c.` ] n.v.n.c.c._ ( / ^ v.k._ _ _ v.n.m.k.k.v.Z.' _ ` v.( / ( _ v.v.k.) z.v.b.b.k.k.` k.",
"W x j k T ~ b j f x v W c z x z n c z n n z k g b n Q n c z k x z x c c v v v v x j 4 4 z k c x z z c x x c c c c v v c c R c x "
};
