/* XPM */
static char *_ee4a91fc0b94dde854ed1cc3c542a31[] = {
/* columns rows colors chars-per-pixel */
"64 64 43 1 ",
"  c #002D00",
". c #003F00",
"X c #004200",
"o c #004500",
"O c #004C00",
"+ c #004E00",
"@ c #005100",
"# c #005400",
"$ c #005B00",
"% c #005C00",
"& c #006300",
"* c #006500",
"= c #006800",
"- c #006F00",
"; c #007300",
": c #007400",
"> c #007B00",
", c #007D00",
"< c #008000",
"1 c #008600",
"2 c #008A00",
"3 c #008E00",
"4 c #009100",
"5 c #009600",
"6 c #009B00",
"7 c #009E00",
"8 c #00A200",
"9 c #00A700",
"0 c #00A900",
"q c #00AE00",
"w c #00B100",
"e c #00B400",
"r c #00BA00",
"t c #00BD00",
"y c #00C200",
"u c #00C700",
"i c #00C900",
"p c #00CD00",
"a c #00D000",
"s c #00D500",
"d c #00D900",
"f c #00DC00",
"g c #00DE00",
/* pixels */
"*iiiiurO=*:>adfday:165246211rrtiipppppiwe0;#41=a5rq3i3=;@>>7wq06",
";iiiuy:1:=3sddfddd62887997736triw0wryr0=2- =-=py4y1:**>2,O%O<-<:",
"*iiui7o<>8ssddfdas>88770098687qr3ryu061-te64ewq51t2<=1:q7,&#1%44",
"1quuw*<;4,qaddddsd307q60www3@734rett42164yr9*,1<,48rypq<e7;1,34w",
"5*r73etw9,15yddda89q57577657$:,er0w9>7iy064y5$43:rpdffrrre->-&o%",
",:4<ytty6,>>,t55269068679857:<889764:2sqiq7ye<e6wasffft1tr52q412",
"4tyyttyy1<<,.;-4,91-597200te6O=:@*;1<,60ssryr0a0udsssdi<tre4rrw:",
"qyyyttyq9098&#,q75&<789<0qiu91*:$w1466350qsw30a4pddfas1*ree5rtt,",
"ryyyyte3ewqw>5eee*o-tu06yiuir5:@@8rety919qi7<u>risdf6966745,1tt2",
"ryyytrw3te0<7ruwq:,w9qy8uuuuwt-2,rte69w8w495r55ttads68wtuty85<t3",
"tyreq55221w30yyt7<2ee409ryytwe-e40t28ety70qwu82yaiit37uuapppw1r,",
"9q8751#,453<0yuuq6qrr9e0wwrrwy6a49e18rt5,69t592eeu9275rpsiaaa5$#",
"5655aa116762uuuyy85q89u98wyyrt=ya679e9e95653;t86<5;15,,tppaaau1X",
"sssssap58775tuuu4999eey<,8iiyy578u337<329<9,5r0<,132795<7paasa73",
"daaappu78670ruuy3:1tayy7*3tiuw3y*152-%#&49q017;,900ewtiq5tpaap0=",
"52aappi441q40yu,4=*wprw7==50r518;56@$>&o;489qry15680ure8,rryrr3O",
"X%raaait21qw1863q,,9uu72&<>373t7&33#20425yu78439440qewtw389;-&=1",
"1*:3it6<*&37ww7tut2,784w=5;832w42ieo>q99uyu0w48e688wey98233-7684",
"w05=31,,81;207upiiu5*<87>;o:9w633u<:2,,9yyy0ietuuw5rye53<y66weww",
"ew9%=1eere<-&7iippii5,&3:6$<56&453-9q15qt46<urryyy4wwq675,18qwww",
"ew4164eeerw%O7piippiw09t88;,:2qrywe766@%8$2-rt9qee288219eq1<qeee",
"ew1,<eeree6;:3upppir>4<:;r26uiiapppy7e=X&17,-01uqw9rt8<14w6,,eee",
"w755,0468001r1ripir9:q,173;7ppaaaapt=33-7wt2,267118t950wq7yq5<qw",
"82*w8,146738y2qtr0:><4343<1ippaaaaaw40,4e170qee75150<5tiuw0it158",
"**495-1755=7w347:&<7799q03:paaaaspw6>1*,<3ettttq6111$;yapyw9p2,:",
"6 @=;3=2qq847455>&509wwew9-544aap0%,<=4&9tttrytr<65w*-7appuqp92q",
"y-%>*>2;0tyq05yu620e0wwee%<q0873#**7eq1-rtttryt0;2,<-41eipper2wi",
"i8#:6we50wwtq4uu4wwqqewee6ettrww4*7yuu3>ryytttr3wt049y36eua8w45i",
"ir,9tyyqtrry0iu16wewwwe<4ryttytttq<2uiw>tyyyyr03rte:<99y6077r9ui",
"iertyyiqyrueiuy28eeeww01eytyytytyye5iui2tyreq1-&rtt26r0uy58990ui",
"pywuiii8uyy2uie;*72763O,wttttyyytw4iiiu38783$O%;&228tu8ty4qweqyi",
"ipppppp7uyq>re45,*&*1$,*:6wtyttrq83iiiio$:,$:2ir5>Xe22=12&qtttti",
"upppppiqe0;#41=a5rw3i3=;#:>7wq07*iiiiurO=*:>addday;1652472<1trti",
"w0eeyr9-2- ===py3t1;&*>2,@%O<-,::iuiiy:<:*4sddfddd53897988736tti",
"3ryu061=te64ewq51t11=1,07,&#1%44=uiui7o1>8ssdffdss>88770q98687qr",
"ertt43165yr9=,2<<48rtpq<r7;1,34w1quuw*,;4,wpddddsd307060qqw4@643",
"r0w9>7iy964y6#43:rpdffrrre->-&o%5*r73wtw9,16tdddp89q57577657%:,e",
"9764:2sqiq7ye,r6wadffft1tr52q412,:4,tyyy6,>:,t55269068679858:<88",
"@*;1<<70satyr0a9udassdu1trw4rew:4ttytyyy1<<,X;;3,02-597200te5O=:",
"$q1556260qsw30a4pdffaa1*eer5rtt,0iyitrtq9008*@>w84&,888<9qui02*:",
"#9reyt910qi7<u>rusdf6965745>1rt2ryyyyte3ewqw>4ree*o-ri06yiuir5:@",
",etw69w7e395r55ttads68etity851r3ruytttw3te0<7tywq:>e9qy8uuuuwt-2",
"40t27rty70qwi83yaipt47uusiapw1t,ryreq54221w40yur8<1er499ryyrwr-e",
"40e28rr5,69t592weu9275risiaaa5$#0q8751#,453,9uyuq6wer9e9qerrwt6a",
"p579e9e94653:t77<5:15>,tiipspi1X5665aa126763yuuyt85q99u98wtutt=u",
"9u337132919,5r0<,13288416ppaap72sssssap49765tuuu5890eey<,8iiyy47",
"*152-%#&49q018-,990ewtuq7tpaaa0;sasappu77679tuiy2>1tpyt7*3tuuw3y",
"-65@$,%O;4890ry15680ire8<rryrr3O52paapi342q40yu>4=&ware7==50r518",
"&32#10425yy78339430qewrw389;;&=<X%raapit21qw1963q,,9yu72&<>373t7",
"2uro>w99uyu0w58e698wey98233-77841=:2it6<&&37qw6tit2,793e=5;832q4",
"2u<:2,,0yuy0ietiye5tye531y56wewww05=41<,9<:307uiipu5*,87>;o:9e73",
"63-9q25qt451ieryyy4weq764,18qwweew9%=1eeee<-%8pippiu5,&3:6$<55&4",
"twe656@%8%3=rt9qee388119eq<<wweeew5173eeerw%@7ipippiw09t89;,:2qr",
"appy7e=X&18,=q1uqq9rt9,13w7<,eeeew1,<wrere6;:3iippir>4<:;e26yiip",
"aaat=34-6wt2,267118t959wq7yq6<qwq655>0368091e1ripir9>0,264-7paaa",
"aasw30,4w270qee75150<5tpuw9it15782*w8<146738u2qtr0:>,4344<1ipaaa",
"apw6>1*>12wtytt061<1%;yppyw9p2,;*=485;1665=6w347:*<7790q03:paaaa",
"p0%,,=4&0rttrttt156w*-7appuwp92q7 O-:3*2q0856455,%509wwew9-544aa",
"#*&7ew1;rtyttty0;2<,-5<eipper2wiy-$>*,2:9ttqq5uu62qwqqeee&<w0873",
"4=7yuu4:ryttttr3wt058y47eup8w45ii8@:7we5qwet05uy5qwqqwwww5ettrew",
"tq12uiw>tyytyt04eyw:188u6077t9uiir,9ttywtrru0uu16wewwqw<4rtytytt",
"ytw5uii2tyrrw<-&ttt26rqyy58900uiiwrtyuiqyryeiiy28weewq02etytytyy",
"yw5uiuu28783$O$;&128ty8yy4qwwqiipywuuii8yyy3uue;*73873O<wtytytyt",
"q73iiiiO%:<#;3ir5>Xe22=12&qrtrriipppppp7iyq>re45,*%*2%,%:6wttytr"
};
