/* XPM */
static char *d688ce6b20604858f7acbea8d7acaf4d[] = {
/* columns rows colors chars-per-pixel */
"64 64 110 2 ",
"   c #3D2E1B",
".  c #3E311D",
"X  c #412F1C",
"o  c #492F1D",
"O  c #45321E",
"+  c #4C321E",
"@  c #52331F",
"#  c #5C351F",
"$  c #463220",
"%  c #4C3520",
"&  c #543521",
"*  c #5A3621",
"=  c #553922",
"-  c #5C3923",
";  c #623722",
":  c #633A24",
">  c #6B3C25",
",  c #723D26",
"<  c #733F28",
"1  c #644327",
"2  c #644B2C",
"3  c #6C4E2E",
"4  c #7D4429",
"5  c #704F2F",
"6  c #784C2A",
"7  c #71522E",
"8  c #6B4F31",
"9  c #6E5131",
"0  c #6F5834",
"q  c #725433",
"w  c #7B5734",
"e  c #765834",
"r  c #7C5A36",
"t  c #775939",
"y  c #7D5C39",
"u  c #7C6036",
"i  c #7E613A",
"p  c #815D37",
"a  c #825D3A",
"s  c #8A5E3C",
"d  c #84623C",
"f  c #8A643D",
"g  c #87683E",
"h  c #8A693F",
"j  c #92653E",
"k  c #916B3F",
"l  c #876541",
"z  c #8A6540",
"x  c #856A41",
"c  c #8C6A42",
"v  c #936C43",
"b  c #996E46",
"n  c #8D7247",
"m  c #957245",
"M  c #9A7345",
"N  c #9C7947",
"B  c #947548",
"V  c #9A7549",
"C  c #96794A",
"Z  c #9D7A4B",
"A  c #9E7D51",
"S  c #A1764A",
"D  c #A27C4D",
"F  c #A37D51",
"G  c #A87E50",
"H  c #9B804E",
"J  c #9F8051",
"K  c #A2814E",
"L  c #AC824C",
"P  c #B3864F",
"I  c #BB874F",
"U  c #B7884C",
"Y  c #B88A4F",
"T  c #A58352",
"R  c #A98655",
"E  c #A58955",
"W  c #A68358",
"Q  c #A98459",
"!  c #A78A58",
"~  c #AA8B5A",
"^  c #B48A52",
"/  c #BC8D54",
"(  c #BE8F58",
")  c #AD915B",
"_  c #BE9254",
"`  c #BF925A",
"'  c #BF985A",
"]  c #C08E54",
"[  c #C19156",
"{  c #C1955B",
"}  c #C39A5D",
"|  c #C5A15F",
" . c #C39661",
".. c #C59D62",
"X. c #C89E66",
"o. c #C6A264",
"O. c #C8A465",
"+. c #C7A865",
"@. c #C9A967",
"#. c #C7A569",
"$. c #C9A46A",
"%. c #C7A96A",
"&. c #CAAB6B",
"*. c #CBB26E",
"=. c #CBAD70",
"-. c #CCB472",
";. c #CEBA75",
":. c #CFBE79",
">. c #D1B877",
",. c #D0BD78",
/* pixels */
"%       % O . . : : = % = 1 6 6 : %   . & : - = .       $ - - - $ $ @ : > : : ; * = ; # ; : > > # # # # & + + X . X + = = * - * ",
"c g y d h d i x x x g i x B n n l t t t t y y i d y t 0 a l l c d y y w y f z v m m M k k k h p e e 5 5 w w w w d x v b v x c c ",
"T K Z Z T Z N T T J T Z Z Z Z Z Z v B N A A A A Z D D F F Z V V A M v g k m V B v v m m N G G D D S M v v m v v N J T K N B M D ",
"&.o.} ..o.' Y Y ' o.+.| } ' ' ` ^ ^ ` X.%.%... .` [ } o.#.X.} } ..} } ..} O.....X.o.%.%.&.-.-.*.*.-.-.%.[ / _ [ } | | } ' } o.*.",
"-.*.o.X.#.{ U P _ o.-.;.*.*.&.+. .` ..%.*.=.%.o.} o...O.%.=.=.&.X. .[ { } O.o.} ( { X. .{ _ / ( o.=.&.o.[ Y / ` } } | ' ' { +.*.",
"D K N v k f s j v m V N Z K D Z v c c v Z Q T F N N D S V M M S V S S S T F F V m m V v c v m A D M k k m B M B C C N Z N B B B ",
"z v s w p r y f d d y t w a g f d y t r l m b z h h z f p p w p v z s a a p a a a s a w 9 e y f d t 0 t g m b c h g h k c h d p ",
"@ + X X @ * & & @ @ & o & * * ; & * * & & * & & & ; ; @ + @ # ; , ; # # @ @ + # * : : & & * - - - * = = - - & = + + @ = - # = + ",
"      $ & & : : * @ O + O + = # $ % % # & + + + + + @ O o o @ @ o o @ @ X     + # * %     o @ & % $ $ % + O $     . % = = O . . ",
"x x c c x g x g i i d d p i g g u d g g d d d p r y p f s j s p a a s a p s g g p p y p y e q y a d y p y t t a d g d d i d x i ",
"E ~ ) ) ~ Z B v h h k v m B v m B J ! E Z D N M n k M M D G G G b M V D G G D N v v v V V M v M D F F A m m V F E H m n k n H H ",
";.;.;.-.*.*.*.&.%.o.o.o.O.%.&.%.o.*.;.;.*.%.O.o.o.@.O.X..... .} { } O.@.&.*.@.O.} } ....=.%.#.=.-.=.$.$.%.%.=.#.%.%.%.%.@.;.:.;.",
"%.*.;.:.,.;.*.#.&.%.O.O.o.O.&.=.%.%.%.&.#.#.O.O.*.-.-.*.=.#.O.| } } } } } ..O.@.%.&.&.X.&.&.&.X.X...` [ {  .{ { } O.=.*.@.*.&.@.",
"N Z T Q R D M m m V D V B m V Z A N N Z D N Z F ) ) ~ E T V m k k M M b M k M S V S V V V b b S Z V V V V V V V b Z T D H Z Z N ",
"g d w t t y d d d d g g f d f f z x v v v c c m N B n v m m b b k j b b j f s p l f a y t 9 w z l y q e d z p 9 9 w y y p f c x ",
"+ + @ # ; - * # @ O     @ & * & : > > : : : : : : : : 1 > > , 1 4 , > > , > ; ; ; > : * % o & : ; * & & @ * % + + & & @ % & * @ ",
"* * ; ; - # = - ; @ @ @ @ # # # @ * - - = & % % & & * % + X + = - = - & # o o o + @ ; ; # ; : : * - : : : : : # # # # # # # - : ",
"h c k g e e y k k h f w p p s f d d d y y y d y y y d a p y d d g d d a w p p s f f g d p p g d y u d g m N B g p g k k h p d g ",
"T G N M k m M M M v k k k v v b B M v g d y y i v v z l k k v m N N D G G S S b M M D N M M b k v N H N B M m v N N D N k k N K ",
"*.@.O.O.O.} [ [ [ { } X.O.X...{ [ } ..o.| X.} ` ( ] (  .' ` P L _ ' X.=.$.X.{ { }  .} | | { [ [ } %.&.%.#.#.+.#.O.| } ] P U ] | ",
"_ } O.O.+.} | } { ..X.O.$.X.X.} { ` ..o.%.%.o...X. .(  .$.$.$.$.} [  .%.=.X.X.O.$. ./ I I / ] { } .. . . .` ..#.&.O.o...| [ { } ",
"k k N D K T G D M S G S M v m V D A V v M F A m z l j S W F A Z m v m N Z b v M V v p p l v b V Z A Z V v l z b G D V V N M M N ",
"k b c v v v j f f f h s p e e w i y 9 8 q a x a t 9 q t y y y y q 9 q p y w q q y t q t l c v b v z l a y y y s h c k g g p g h ",
"; , 4 , ; # # ; # @ o o + # * - = * & O % & % $ & $ $ * = & $ $ o   X * : * * : $ X X X % * * * - : : * % . $ % & = - - # @ @ @ ",
", : # @ @ @ * & & + X X $ % - > : - * & $ . $ % & & & - = = = 1 - % = 1 , = & : = = % $ $ % * % X % - ; = + O O + % + @ # ; > , ",
"e e y p a d d p p t 9 5 8 q a z f y 9 8 2 2 8 0 a z z n m C C n y t 0 d h d d h x B n x g h g g d x c v g i e e r d d g g f j j ",
"b M M M M V V A S V M v x v V W T v i y x v V Z B B B B H E E H B v C J J Z M C C Z N M v m v v N T T G m g s p g v C M m k l f ",
"@.O.| o.O.O.=.=.=.*.%.#... ...=.-.#.{ } ..X.#.$.O.+.o.| %.:.;.o./ { | } / P / } o.{ / ] } [ ] ] } ..X...{ ] ] I _ ` } +.%.*.=.#.",
"@.| } ..o.O.&.&.#.X.X.#.#.&.%.=.%.o.#.%.=.=.=.$.o.*.&.+.*.>.%.[ [ o.O.} Y / } +.@. .} } o...} { ] ] [ } o.+.O.| {  .o.*.*.-.%.o.",
"D G V V D V v v x d d v V Z Z V B B V A F F Q Q ! Q F N Z G G S V Z F G T G D N b V D S V V N C v m Z D Z A T T B m n C N Z B c ",
"p f f v b V v s a y r y l l s l z l y l l l l v c c d t e r p w 5 9 w a p w e 9 a v m x i d x x i i x g d g i g d d d d d i e 5 ",
"o @ ; , 4 < : % X       + * : : : : - - - - - : - - ; : ; @ o         X       & > 1 : % % = 1 : = .   X = 1 %       . $ $ $ + o ",
"+ O & : : > : : # * # - ; > > : * # * # @ + o X   . + & * = - = @       + + . . : 1 = % = 1 6 6 : %   . = : - %         $ * - - ",
"d p y w y f l v v m M k k k g d w w 7 7 r w y t d g m M m x c h c g y d x d i x x g d i x B m n i y e t t t i l g y e e a l l c ",
"Z B k g k v M M m v m m M G G D D V b v v k k v N J T K V M N Z T K Z A T N N J J J T Z Z Z J Z C B B N Z J A A Z A D F A Z V V ",
"} } } ....#.o...o.o.%.O.*.*.-.*.*.>.-.&.{ ] _ [ { | | } { { +.*.%.O.} } o.} Y Y ' o.+...' ' ' ` ^ ^ ` ..%.#... .( [ } O.%.#. ...",
"..[ [ { ..X.O. .[ { X. .{ [ / ( ..*.&...` Y / ` } } | ' ' { %.*.-.&.o.X.%.{ U P _ o.*.;.-.*.&.#. .` ..#.*.=.&.X.} ..o.O.%.&.=.=.",
"Z S D F S D F V v m V m j v m A D M v k m B M B C N Z Z N B m B Z G V v k d p k k M N Z D Z G V v c c m Z T Q D D V D S V V V V ",
"v j s a a a a a a a d r 9 q y l g r q t l b m c g g g k k h d u v v s y p w p f d d p t e d f f l y t t z b v c g j j f p p w p ",
", ; * * @ @ @ & : : - & & * * - * = = = - - = & @ O + = - # = + + + X   & * * & @ @ @ + @ # * ; & * * = & * & & @ # # @ o @ # > ",
"o o @ @       + * * +     % & & + + $ $ % O X .   . % = = O . .       O & = : : & & + O O + # @ O + + * & + % % + + + O O + @ @ ",
"a a s s p g f g f a w p y e q y d d a y t t t a d g g i i i g d g x x c h h x g y i d d d i g d i d g g d d p p y p p g h j s p ",
"b b M D D D D M m z v V Z m v V Z D F D v v V T T H m v n m C H Q ~ ) ) ! H C v h g k v m m m m B K Q T D Z N M v v M M G G G S ",
"[ } O.=.&.*.@.O.} } ..X.&.=.O.&.-.=.&.$.%.&.=.=.%.*.%.%.&.;.:.:.;.;.;.>.*.&.&.&.%.o.o.o.o.=.&.#.o.*.;.;.*.=.o.o.+.+.+.o...}  . .",
"} [ } } } } O.@.$.=.=.O.&.&.#.X.....` { {  .{  .} o.-.%.&.*.&.%.+.*.;.:.,.;.*.#.@.%.#.O.o.#.=.=.%.@.%.@.%.o.O.#.&.-.-.-.&.&.X.| ",
"M M S M M b M S V S M M b V M V D V V V V V V b m D T G N Z Z Z N Z T R Q F V m m N Z N M m M D J C N J D V N F ) ) ~ W T V M k ",
"k j k b k s s p a l a y t 9 w z g t 5 w d z y 5 9 w y y d f k g z d t w e y d d d d g g d d f h g c c m v c v m C C n B v b b v ",
"< , ; > , : > : : > : * % o @ > : * & & & & & + + @ & + + @ # @ + % @ # ; - # # & X . . @ * @ @ - , > : : : ; : : ; : : > > , < ",
"; # # = @ o o o o @ ; : # # : : # - - 1 : : 1 # # # # # # # - : * - ; ; - # = - ; @ @ @ @ # # # = & - - = % % & & = @ @ O O + # ",
"h g d u p p s s s s f d p d g d r u d h v N v g d g k k g p d g h c k g e e d h v h d p p p f f d d d d i y p y t p d d p p d d ",
"N N H K G G S b b V D N M M k k m C Z A Z C v k N N K N k k N T T D N M k m M V b k k j j k v b M V c x d p i y v v c x h k k m ",
"_ { | *.$.X.{ { {  .X...} } _ [  .#.=.%.o.#.+.+.| | { ] U L ] o.*.%.+.O.O.} [ [ [ } ..o.X.$...{ [ } ........} ( [ ] ` ` ' ` P L ",
"} [  .#.$.O.| O.X. ./ I I ] ] [  ... . .` { ..O.@.@.O.X.} [ [ } ] } | @.O.} } } } } X.O.$.X.X.} { ` ....#.=.o.X. . .(  .o.%.$.$.",
"m m b S D M m M V v a a h k b D A F A b v z z m G D V V N M M M k k N L F G L D M S D D M v b M K A V m V D A m c s j F W W A Z ",
"q 8 q t p w 7 e y t q t l c v v v l l y y y i d k x k h g f d h b v k v v v h f f f f s p e q e i y q 8 q i x y t 9 9 t y y t a ",
"o X X # * * * : $ $     % * - * - : : - % X O + @ = = : * @ @ @ ; , < , ; # # ; # @ o + + * - - = * % $ + & & O & $ $ = - & o o ",
"- % * 1 1 = & : = = % . $ & * % X % = : = + O $ % + + & * : , < , ; # @ @ @ @ # & + X . X & - > : - = & X . X % * & = = - = = 1 ",
"d q 0 d h d d h x B B x d g g g d h c v g i e e u p g g d s s z w w y a d d p d a w 9 5 8 q a x g p 9 2 2 2 8 t d l x n V C n n ",
"B k m H D N V C A C Z m M v v v S G T D m k d d h v M M m v g g M M M M V V N D A V b v c v N W F b d y x m V Z V B m m C E E H ",
"/ } o.../ Y ( } .. ./ ( } { [ I { ..O...{ ] I I _ ' } o.%.=.%.+.+.O.} o.O.O.*.=.=.=.%.$...{ ..=.-.#.'  .X.X.#.$.X.#.o.o.=.:.;.o.",
"[ o.O.} I ] } %.#. .{ } X.X.} { _ _ [ { o.+.o.} ' } o.=.-.-.%.o.O.| } X.O.O.=.#.$.X...$.=.$.$.=.%.o.o.&.=.%.%.%.o.%.&.O.*.;.=.` ",
"N Z D G F G D N V V F N V M V M v m Z F D F T E B m m B Z Z B v G S V V V V m k z l d c V V A V V B V A T W Q Q ~ ! K N Z T F N ",
"7 3 t s p t q 5 p v v x i i x x i i g z d g i x l i d d d i e 5 p s s z b b v l a t t t l l l l z l d d l l l c c c p t e w p w ",
"      X     X + > , 1 % % = 1 1 = .   . - - %         $ O % o O + @ ; , p < : % X X X X + * : : : - * * - - : : - : : : ; @ o X "
};
