/* XPM */
static char *_02d0ada5d544db7cd650ba1023671fa[] = {
/* columns rows colors chars-per-pixel */
"64 64 47 1 ",
"  c #CCAE76",
". c #C7AE7B",
"X c #CCB37D",
"o c #D4B57C",
"O c #D8B77D",
"+ c #D6B87F",
"@ c #DCBB7F",
"# c #E1BD7E",
"$ c #CEB880",
"% c #D2B780",
"& c #D5BC83",
"* c #DCBD82",
"= c #D7BF88",
"- c #E1BE82",
"; c #DDC185",
": c #D4C48A",
"> c #DDC48A",
", c #DEC98E",
"< c #DACB90",
"1 c #E3C385",
"2 c #E9C686",
"3 c #EBC887",
"4 c #E4C689",
"5 c #E9C788",
"6 c #E6C98C",
"7 c #EBCC8C",
"8 c #F1C984",
"9 c #F1CE8C",
"0 c #EED08F",
"q c #F2D18F",
"w c #E5CD91",
"e c #EBCE91",
"r c #F1CF90",
"t c #E5D294",
"y c #EDD293",
"u c #EDD997",
"i c #EDD698",
"p c #EEDA9A",
"a c #F3D392",
"s c #F8D693",
"d c #F5D996",
"f c #F9D996",
"g c #F1D698",
"h c #F4DB9A",
"j c #F9DC9B",
"k c #FDE09D",
"l c #F7EAA8",
/* pixels */
"y6eee6e415577q9aq4>*-416asre443qpgsq765e7764464egae7e27eyyy1129y",
"766eee6y7112qskfq75->&&1edr669e4wyd72166656445577ae79y950u75##ee",
"qqa77e57e4-40sfssqq76;*4e7eey75>61te47eya64*46ee9jr77ha7s065@3ey",
"asf76;15t611uhqaassf9e67556eq7e66;>47y67ee557e7aaa9y6e4155636q7q",
"a9a64&*;>*10ug7adasssqaa276ad77776>60u7qey37e6eey9aa76;4@-4#6dqq",
"a7y64O+*;*>7hhyae677q7ar2457raaaare6ye006e56e11144das7;>;1;#7700",
"06ew61565446yhya54541***14475e7yajyyeee5;>146;*;17yasa0pw33111y7",
"7w5t63777e6eegyi>;&&+X+@144626267eyqy9y6*;;1;1;%O*i779ey0dq95#u4",
"4;@w35355y774ayy1<&;@+&O;67q84+:;4e000ye@1661>*o@;y2eqpi3aa774a6",
">>*w6737e6ee7aaq6>:*1772>16536*&;66717e95qey64@XXo61eepi9qq0w664",
"6>166370e6e7aaaa6>>78qq9646e511;47774t0739yfa75;Oo;4ee6,19e74e60",
"ya905ee07666aadge>>77q7740ee6251e998yy64;54yy70111165t41133w,45u",
"qy3e5eysdy764erje6177e6156eqjq454779uye4;;1670q277097g76427747ea",
"5677;4e0aae44e7y61;>7e51;617ad6559et6e6411#646157073ra76423975e5",
"-*6616;4797767e411>664>;4*;*2a793u6,67e11#3771@11467r764187qqa96",
"->66e4**779777e1@1466;>4e1@oO66r9e;6607411337761*&-ea6w6259009e>",
"676we611399330755779716t921+o;6d976eee7651720ya7#*;6y77ee97326w5",
"2dagy777qq937437e157q0eaq92#&;*615e64era7724660a7-*4e6aqsqq45y33",
"179a7ee7732t76256411dy7415971@;1*46677677e66664ee774;>;10y767qe3",
"77qfae461;@>67937467sh74>#4u1;$*&;5aq7e6>66ye6*>6qa4;X+@40a7hssa",
"a79qdy44;1@447e99qye0ha4*;1w>>;>-44ds7544eedfa646dfy-*O@47e60qqa",
"dsr97ay651>>>14asaa9ajkhq3;*;61e4e6asqq9ae6afaa46ege55;;4766309d",
"yay39eg526ie;*;68ry767igqs7;6yyeyy5w7977ewe6eyt66we65955304>#q0h",
"daa566y7266646-**;6-1*,t2766e7yaaw1w6221**115,>;;w4e79756e31#e3h",
"rrg7e4y776a0772;O&,*&&@,**4e6#67de5t4***X&1>;,==*67669q77464#63d",
"dfjayyy7e11ey774@o,-1146&%@1@o;6ae6,=O*-***-<w4;;16e9qq77656562y",
"faaaage-&&*70a7777ee77qy1*11@+*16566>@;65666ppgy6;1577671417770a",
"a66eyie-$. @76yasq0aaqq0651#56;;**676476e699akaae1;4r961;4700657",
"64w47ae*X.X*56aaaf97y0777165qs71+o6076154>7shjaae7*;;6>;@5uye;;;",
"44665ey4;;4-41e0qha75ee76*159qae@;5aye15>&1909ya7q;*1771117e6;@>",
"iyy74744;6ye41140gy7@65qai77q8fd66yde>;1;@-11267571-679666e641;6",
"lgar56*64yaye6-6yay7630hpya783qaaeyee6e725775e9a76447u7e656t674s",
"pgsa762t6e66155ya0e7737eyya1#1q0y6eee7w112577aqaq64*-4;6asaw447a",
"eyd75166e4616717eae78u95qu91#-ee76ee6y7y6114qskfq75-1&&1edr76774",
"446w77y9q66*16e0aga03py9a064@3ey9aq76e79e6*59afaqsq76;*4e96ey754",
"4;>57y66ee517e7yaa00ee4163673y7qasd76;;5t115yhaadasfre66556ya7e6",
"76>4raerey75e6770qaaq7>1*-;#3sqsaqy61&*;4*4egi5dddsssqaa577aa777",
"dr6etyy76e57e45;15yda7;>;;1177e0a7y66++;*&>7hjga757699a95417qaaa",
"ajaet7e44>146;;>16yssaeue73#51y706e651164446yjyy54441@**11567750",
"67yra9y5***41;@+O1t73eeu9sq721t66e5t73779r66egat1>&&&Xo*;447271t",
">4y9y9y7#44611*XO;i27qpp3qse75y66>@,73557ee76aay1<&;*@+O;6e986O:",
">67346e949eu66@Xoo6-eepi99qe6664>>*t4537y67e9yay6>&;13751>4784;&",
"47774eee57ady75;oo-4eew>57e7>e7y6416757qe667arda6>>e3sq76667511;",
"6799ta64;550y00111467w4;175e,61y0a9y5eee7664rrdde>;77q9767ee6551",
"637yyaw4@1;6e772q7797a66456e670saq7e2eyddy666r9je6>570614ee9dq41",
"59ew6e6412#657257y73a07e5-3975e516y614eyad744e7a66;17t41;>17as74",
"8u6,6764-12761*116477764159q0a74-*4416;469776y64;11664>;4;@;1u79",
"071,e77712377641**16q7ew2897q0041466e1**69957ee1#;666#>671@OO66s",
"776e6e7e4155eyy71*;6a77ee9725664776te411899777622677756t921+X*6d",
"13e6769a7754660s7-*;e7aqsa755y751aag0ee7q9875277e177a7eyq925*;-6",
"*46677e67e6e6610e671;:117a76eq7713aa7777e31e67236415gq6412774&*4",
"*;2aqa65;66ae4&66a97*o%&7ea7dssq07qdae6611*>67787647dh04>-2y1*%*",
";42aae444eedfa4>6dfy-&o*1ee6y9qda79qay6411@>64e999er9hy4**;w>-*4",
"666dssqqae7afda66egy341*176659qdaaq99yy61;>6>44yqqa9djjjq7;*=e>e",
"ey5e7997tee67yy66w6739736y41#qqhyaq89ea447ye;;169aa767ehsq646ey7",
"aw1<422-**1;4,;;;w4e79626761#77dadg566y7376644*;@;6-4*,w577677ya",
"de6t1@;@o&>>-<==*6e669q97561#e3aaai7e5ye76qa7e41o&6*@&&,@;277#67",
"at66;O&;-**-w<4>;1677qa77676564addjayey7w>170756*o,;1;6,&+#1@o&7",
"e5664@;44767pggy6;1476751557777afaaagae*&&*7aa7767e777qy1;11*+;1",
"*+676656667aahaae114q964*16y7677a76eya6-$. *66rasqqaaqq061>#56;*",
"&o60e615443ahjaae7*;*6>;*5ya61;;6>667ae*%.o*66aasfq0ee777142qq01",
"@*4aee25>&19eqya9q;*1771116e6;&>46667ey4**4*4467qha75ee74;179qae",
"76yae>*4;*151567561-667e66664117tye77244*6ye41147dy7@66aay7799dd",
"a6aye5t72557107ae6459g76e5et646slgaa56*w4ayr771tya76680hpya788qa"
};
