/* XPM */
static char *_08818ed10da4836dfb518c2df2e930c[] = {
/* columns rows colors chars-per-pixel */
"64 64 41 1 ",
"  c #343434",
". c #3C3C3C",
"X c #434343",
"o c #4C4C4C",
"O c #545354",
"+ c #5B5B5B",
"@ c #646464",
"# c #686867",
"$ c #6B6B6B",
"% c #70706F",
"& c #747474",
"* c #787777",
"= c #787877",
"- c #777878",
"; c #7C7C7C",
": c #807F7F",
"> c #7F8080",
", c #838383",
"< c #888887",
"1 c #888788",
"2 c #8C8C8C",
"3 c #8F908F",
"4 c #8F9090",
"5 c #939393",
"6 c #989797",
"7 c #989897",
"8 c #979798",
"9 c #989798",
"0 c #979898",
"q c #9B9B9B",
"w c #9FA09F",
"e c #9F9FA0",
"r c #9FA0A0",
"t c #A3A3A3",
"y c #A8A8A7",
"u c #A7A7A8",
"i c #A7A8A8",
"p c #ABABAB",
"a c #B3B3B3",
"s c #BCBCBC",
"d c #C4C3C4",
/* pixels */
"&;$;,8772=###;qt31,;=#+@+@+;wy4q,&#+@;q4,&%%#@@+#24,1r2;$&2**@%;",
"$;;87t78,;$&8pp74pw<;++&&&&4qt64,%++$4e5,;%$@OO+:44>;4;@+#;#Oo+*",
"29aayt31;;#&paq42pt1*+#;;;:3442,&@OO$295,;$@##&1e51&$,*+O+@O X#5",
"ptap80>2=-@&iw5;;44;%#;,,;;;2,,$++O$:35w4,$#>4et72;$+$&;&&#o @es",
"q8tp8;;2,;#;751&#*;;,2,&,,,;11;#+$#&;,6w7>$&4eq71,#XX+;,;*;,;aaa",
"41*;824iq114t,;&#&1t82;#,148q7,%##*,22396147puq2:%O.O#;,>,194aea",
"2,;;aapur578t5,,$,7u92&@&4et833&#+;,49ttq8tut62,*OXo&quq4epy8y4t",
"7,,1wuupt2q2qq1;#;884,;+&wt8,&;*,&8etteyuqtq71,&OXX$1888utt5,45e",
"8,49e7852>24r71&$;2,,;*+*u7,;@#;42ye788q411,;&&#o.o;<58qq8741qqq",
"&&,44444,$&,q8>&&,285,&@;pq,*$&;34pqqq42,*#&,:$+Xo@22187,,17q8,;",
"%$&1544,;$#&14406ttq2;##*q71%%&$*1t6952,$+O#44&+XO;ipiua984781;;",
"+@$*::1>&++%&,7yupuq1,%$*222&&&&&3w21,1%OXO>tq:$@;aaautaut942;$+",
"O+$$$#*%@++##>upupuq2t8;;2844,*=;944:2,%OX+5t7412qdaputtut2>;#OO",
"%#@+@@%#+O@&,7uut778qtt7474,q41,22,;&*#OO@,t7847wuaaptq4741&@##&",
";*$+#&,;#+%,qttpteq877897q52752,1;;#@+OO@;4p842upqpapt8,4,&@O%@$",
"1,113841*%3taw88qqq484:7pat21,2:;@+oooO@18qyq8qpwqtpt71*1,#@+&&%",
":48848121,upa03127utq1#qyyq,&;,:$OXooO&5t22tp9qtw77841,;;1>,1,%@",
",1241,,,2<0tt42:,,qq8,#tee3*:42:+O+##;tp84qpayy74243;&&&&177q1,;",
"que81&77q85qq<;&;;q88&+4q3;&1tu51,q,$;tq67ppaeppt2:,$#+&&1ut4$%8",
"t724<,tr8<,13>,=;,62,#O;4*%;8tawq,4pq7tt7upuu7tutq,;$@#:<2u74,qa",
"wt28tupu8,;,,;;;>,1,;@O&533qe5utq,;qptyaapu7q4qq281>$@#47qyq74up",
"w8;,7qq1,2,521;$#&&$+@$&,qytq43a742uywqautt75,,2;;,:&@$77q7tappp",
"74,,pp0,2ppu7,#@@&&&@$$&=8au61,tu7745,5t814811&>&$,;$#&tqq8qu07t",
"i71,4qw7yapq,@oO%,1,###=2wwq52,557581&:4,&;5>&#%;;1;=;2ytq88t47e",
"pq218tpppyt41%#4pi55#@&,2552,,,;=133,%&,,*&2,&@@$,72:,7uu752qqpp",
"tq2,2qytq412487asp2;O+wqq43,,;,&$,84;#;q2;#,,;##@17q44te72;;rruq",
"54,17up78,,qapqpda2#o$siq3<*$&&$$%;<,:5p72&,14;&#0tt94pq2,#$tteq",
",,;,,1424,&8pt15aap7&,suptt5;#OO@$$=,14t4;#188;;,pttq8tp4,##8uq4",
",&&;-&342;&9u8=5saq<;qapw7832<#++$&&;,123;$qq8&,uaapt42qq2;#;772",
"&&&&##&,,,,552;8pit8&2aay72,,;&&,%&%;,,1,&;75&#2pt7u81;,22*@$4q,",
"&$@OoX+;1,>1,;;24q2,;qsat81;;$;,e,*+##;,;;=4,+&up7992,&*;;#O#28;",
";&#+oO;1,;;,,;**&8q7>552144,;#;,9,$##;,,&&#&@+1q8;;,>&##&+oO,w81",
":&#++;q2,*%%##++#14,1e2*%&2&&@$;&,$;,8772;###;qt2<,;&#+@@@+;7t4q",
",&++%3t8>;%$@OO+,85;;2;#+#;#Oo+*$*;47u98,&$&8ppq4pw<;++&&&%8qu85",
"&@OO#364,;%@##&2r51&%,*+OO@O.X#829aaut4,;;#*paq42pt<*+#;&;,4442,",
"++O$:48q4,$#;4wt72;$O$&;*&#O +qspeaa88:4--#*uq5;;45;&#;,,;;;2,,$",
"+$$&;18e8:%%4wq71,#XX+;,;*;,;aaaq8tp8>=3,;#;78,&$=;;:1,&,,,;1<;#",
"##*,21478149ptq2,$OXO#;>:,193ata41&;424iq114t,;&#&2w72;$,148q7,&",
"#+;,48ttq8ttu82,&OXX&quq8qyp5u5t2,;;aappe498t4,,$,7t72;+&3qu842&",
";&8ttrtuueeq71,&OXX%1898utt5,48e9,<2wtupt274qq1;#;884,&@*qt8,%;;",
"52pr0087412;;&&#oXo><55qq8821tqq8,58e9952:44e71&#;1,,;*+;t7,;##;",
"24p7q742,&$&,>$+Xo+22200,,,778,;&%,44254,$&,q5,&;,388>&@;pq,*$&*",
";1t7052,%+o#45&+XO;uppua775741;;%$&1444,*#@&14488ttq2;##&q71%&&$",
"&2t1<11&OXO,tq:#@;aaairait944:$++@$*,>1>&@+%&,qyupuq1,%$&242&*&%",
":742,2,$oX@5t7412qdapittut2,;#OOO+##&#*%#++@#>tpupyq4t5;;1844:**",
"42,;&&$OO@>tq847wuaaprq3q4,&@##&&#@+@@%#+O@&,9utq7q8qtt7574<q41,",
"1;;$@+OO#;5p832upqpapw0,4,&#O$@$;&%+@&>;$+%,qttpwwq8878q7q51744,",
";@OoooO@18qyq87ptqtpt01;<,$++&&$1,114841*%4tat98qwq484;7pau21,1,",
"$OoooO&5t12tp7qte99641:*:1;,1,&@>35838221,ipp72127utq1#7uiq,&;,:",
"+O+@#;tp747pauuq4244:&&&*17qr1,;,123,,,,217tu84::,qq8,$tww2*;82:",
"1,7,$;wt77apptpye2;,$@@%&,ut4$&7qut81;77w05qq1;&;;q88&+4q3;&,uu4",
"q,4uqqtw7ypuu9tute,;%@@:,4tq4,7at724,,tq5,,12,;;:,62,$O&4;%;8tat",
"q,>qytyaapyq74qq451>%+#49qpq04uptt28utpu5,;,,,;;:,2,;@+&5437w5ut",
"722tyqwaute75,,2;;,>&@$qqq7tapppw8=:7q72,2,812;##&&#O@$=,qytq53a",
"u8855,5t41492,*,%$,:%#*eqq8qp98qq4>,pu7,3ppi8;#@@&&=@$$&;5at61:t",
"87551=>4,*;5:&#&>>,;**2yt788t27tuq1,5tq7papq,@oO$,1,$##&3quq42,5",
";144,%&,:;&2,&@@#,72:,9yyq4270pppq214upppuq8,&$4pu88#@&,25521,,:",
"$:85;#;e2;#,>;##@1qq44te74;>rtyqww2,2qptr212457asu<:++q7q33,:;:&",
"$&;,:;5p71&,14*%#6wu74pq2,##tutq44,2qtu78,,qapqpsa2#o$syw31*%&%#",
"@$%*,14e8;#,78>;,ptwq8yy2,#@8tq4,,::,2428,&8pt<5asp7&,stytt5*$O+",
"+$&&:1144;%qe8&,uaapu41qq4;#>772,&*;**232;&7u7=5saq<;qaitq842,#+",
":%&$>;,1,**q4&#4puqu51;,22;@$3q,&&&&##&1<,>482;8put8&1sau72,,;*&",
"t,*+@$;:>&*4,+&tpq8821&*;;#O@34,%$@OXX+;1;,1,;;25q2,;7sae81;;$;,",
"8,%##;,,*%#&#+,e4;*,,&@#%+oO,w81;&#+oO;<,;;,,;&;&577,552124>;#;,"
};
