/* XPM */
static char *_8e59959d36f4008e62d0ec9ba0362d0[] = {
/* columns rows colors chars-per-pixel */
"64 64 43 1 ",
"  c gray28",
". c #484848",
"X c #4E4E4E",
"o c gray39",
"O c gray40",
"+ c #6A6A6A",
"@ c #6D6D6D",
"# c #727272",
"$ c #747474",
"% c gray47",
"& c #7C7C7C",
"* c #838383",
"= c gray53",
"- c #8B8B8B",
"; c #8D8D8D",
": c #929292",
"> c gray59",
", c #9A9A9A",
"< c gray62",
"1 c #A2A2A2",
"2 c #A7A7A7",
"3 c #AAAAAA",
"4 c #AFAFAF",
"5 c gray70",
"6 c #B4B4B4",
"7 c gray72",
"8 c gray",
"9 c #C1C1C1",
"0 c #C5C5C5",
"q c gray79",
"w c #CECECE",
"e c LightGray",
"r c #D5D5D5",
"t c gray86",
"y c #DDDDDD",
"u c #E2E2E2",
"i c #E4E4E4",
"p c #E9E9E9",
"a c #ECECEC",
"s c gray94",
"d c #F4F4F4",
"f c #F8F8F8",
"g c gray100",
/* pixels */
"75517iguy044>9y923pt9r01@$ggaur1<gis8w68<*496#>t4*,:#>tgiw4,2r9q",
"3&&fgggty2;518s0:0ye0tq1;6sdeeq54drq7w41><06,>1t3-7t17ggaa9yusq4",
"2;,gffytr,,<4p9,,447wyw20iiietawsiw80wq:>104184<535twggir00ifp00",
"-,5sdpiuw><1>t08e>54954-,w7wyeiwsppt969538wtiy3%7722:9rtq519t096",
">=rsgytq,*231fattre25544:760equ8yqqt93:%;90qw0212tiyy6<9q24yr33e",
"#o27e674%*<<1u80788650qt88wwq9rq<-4q,;>*,qqqw90qaffuyr3<3 O>5221",
"<%>76,&;;,r4,40apfq4qte845rq07167,>w2;79eitty968uipe98345X.=*q06",
"rwtei7,<0qtp090pte716wy07qrw79669776t6tt9rw0e65wuree92688&4iuge7",
"p86uw68udasy459ty1:27tyq8w89<1pdrr7qq6907650q><wiq987<5tw76gggt0",
"u7wat01<tiy95qwqy1*>,0087063;2duydpt044343>773,784215:151trfiuqq",
"t0ty63>:ry00wr79u54928q489e3<qfutpu69w98r0,429q87354<>>9<889ttet",
"2167:;29tyretu0qr4404479erp74fgiiit3692wdi5;,65735re035s80w3ue95",
"=60033erqt80t06r0337427rrupq702qyr729e6ey96,553:7wiyr7usqyu262>;",
"4dfsrqwr77-14<3q3,50wegaayr97;%90;&20urdy6840d57rsaue0euqr8,-OO*",
"rsut035w98=4759e>*rutrpeqe03><,7r,;<ttys73060iyqeat07rye8w85>+&9",
"gaeeq540iq66t071-;erq8955992,3pigutt79qy2<370yq86utr68qwqe82:%qg",
"tyte9148r3>0pq56490q9746751<29gaasu9qy88-%>89q830trr1,408q4>75rd",
"798893290136usprque5e85706,-:wdire5,edy3317966119r09,<e05726sdar",
"5624785we625rprrw807974599<344pw8t96w956iiau75-:9u9953e0656896<<",
"wqr0wuytw8590iq800w3:1<559-qsitw2155e2<wryaw86<*qq59065374rp53q9",
"tpi95y988716ei060765&#25yi0dfuiw<-;::;0yuyirqq2891><;>7053r535uw",
"etr9382-:*,,5q479q>-3,16rt9pgupw:=106>309wur8578&%:,,6ase92,>9rw",
"900738w5,*,060q9e94=3ey440euiqq7<>2pi55eye57<,3q2<33iggauw0rqyqr",
"970<=28546rw77iiiew7rs3>95qetq05358r8wrdswe326ry6esrdsayw434,75w",
"095,->3998e60upupurwps02539rew06,7faqprdyqr3,2752159syeeq7,<-2we",
"34<>27qpt0u97aitwq979r8y5;6w424:<0ftwfrerw6-36:0794wu09775<357i4",
">22170tp053-1awe9q84qu86:,qe913=3fpeqiqwpq1,52,gfa338673>&>6y8t,",
"009830yiq86<1w45<<95qe84$%84907>3gp2477wye56637p0t6;5wq4:=1stwu9",
"ftte6irttw86e43>=20444;**-,4>-147gt0246eq0qeywffy721qr4556eiq89r",
"t3311qrqt6<2650w9ed5<5<*&wrttt57igw84>7yurey74ud8<24ad<39w84r0qt",
">*152ptriw6ewatugff6ty,80tqypgiw74><:-86ptuq,<qi5,9idu89<&<6t0q5",
"=4sfpsrq839di<4qu53354;efg2,95>ei4&#%3pit28w68ri64sspuwt,&4gdpa,",
"1gps8q77<*406@>t3=,;#:tgpw4,3r9075517iguy044>9y024it0e01@$ggaur1",
"4dr07w41>,06<:1t4;7t27ggap9yusw43&&fgggty2:518s9:0te0yw1;6sdreq5",
"aiw80ww:,104184,525twggit00ifp002;,ggfutr,,<4p8,,547wyq29iiiwtaw",
"sppt969528wtit4%7722:8rt0410r096-,5ssiuuw:<1:t09w>54954-,w7wyeiw",
"yqqt93:&;90wqq312ypyy6<9w24tr43w>=rsgytq<*231fpttre25554:770wqu8",
"1-4q,;>&,q0qw90qaffutr3<3 O>5122#o37w674%=<<1u8q689650qt88wwq0rq",
"7,>q2;89eitty968uiar98335X.=&w06<$>77>&:;,r4<3qapdw4qte845rq0715",
"9876t6tr0rw0e66wuewe83688&5iuge7retei7,<9qtiq99pye716wt970re7866",
"rt7qw5907750q><qiw887<5tw76gggtqp86uw58ydpsu449ty1:28tyq8w89<1id",
"tdpr044343:773,774215>141rtfiyqqy7watq1<tuy96qwqy1*:,0087063;2fi",
"tii69q99t0,420q873541::9<888ytwtt0ty63>:ryq0wr79u54828w389e4,qfu",
"upt3791wsu5;,65745ee046s80e3ue962176:;39tyeetu0qr4404479eri74fgi",
"yr729e5wy96,663:7eitr7ysqyi262,;-50033wrqt80y06r0337426ttua07020",
"0:&10urdy6840s57rsaue0eiqr9,-OO*5dfarqwr77;15<304,50wegapyr98;%9",
"r,;1rtua6406qiywwat07rye9q85>+&9esutq34e98*4759e>*ruttpwqe03>1,7",
"fity79qu2,470t086itr68qwqr72:%qggaeeq649iw65t062=;erq9955992>3pi",
"asu9qy97-%>89q940ttr1,408q4>75rdtyte9148e3>0pq56490q9756751<20ga",
"te5,edy33<79661<8r99,<e05726sdar798893290136yspr0ue5e85606,-;wdi",
"7t06w956iiau65;:9u9954e0555896,<4634695wr624rprrw707973509<344pw",
"2155w3<wtyaw87<*qq59064274rp53q9wqr0wuytw9500iq800w4;11559-0sitw",
"<;;::;0yyyirqq2792><;,7053r535uwtii95y988716eu950765&$25yi0fguiw",
":=1q5>309eue8578&%:,>6asr92,>9rwetr9382->*,,6w570q>-3,16ry9ifuiw",
"1:2ap54eye571,3q2,33iggauw0rqywr000737w4<*>960q0e94=3ey340ruiqq7",
"357r7erdswe317ry6edrssayw434,75q9701-29547rw77uiieq7ts2,96qetw06",
",8fa0prdywr4,2652159dyeew7,<-1ww096<->3998e60uiipyrwad93539rew06",
"<0ftwfreew6-35:0704wu09675,368i524<:17qpr0u97apreq979r7y4:6q424>",
"3fpequwwpq<,42,gfa338573:*>7y9t,:22170tpq53-1aew9q84wy86:<qe813=",
"3gp2477que56638i0t6;5qw4:*1srwu90q984qyiq86<1w55<195qe84$%84907>",
"8gr0156ew00euwdfy7210r4546eiq89rftte6itrtw86e43>=10543;**;,4,=14",
"ugw84>7yurey74us8<23as<39w84r0qtt2311qrqt6<2660w9es5151&&wrttt56",
"73><:-86ptuq,<qi5,0ifu89<*<6t0q5>=242pteiw6ewptufgf6tu>89yqypgiw",
"i4*@%3piy18w68ti64sspuwt>&4gdpa>=4dfidrq838fi<4qu52454;efg2,95,e"
};
